<svg width="16" height="18" viewBox="0 0 16 18" fill="none" xmlns="http://www.w3.org/2000/svg">
<path d="M0 15.75V6.75C0 6.43333 0.0708333 6.13333 0.2125 5.85C0.354167 5.56667 0.55 5.33333 0.8 5.15L6.8 0.65C7.15 0.383333 7.55 0.25 8 0.25C8.45 0.25 8.85 0.383333 9.2 0.65L15.2 5.15C15.45 5.33333 15.6458 5.56667 15.7875 5.85C15.9292 6.13333 16 6.43333 16 6.75V15.75C16 16.3 15.8042 16.7708 15.4125 17.1625C15.0208 17.5542 14.55 17.75 14 17.75H11C10.7167 17.75 10.4792 17.6542 10.2875 17.4625C10.0958 17.2708 10 17.0333 10 16.75V11.75C10 11.4667 9.90417 11.2292 9.7125 11.0375C9.52083 10.8458 9.28333 10.75 9 10.75H7C6.71667 10.75 6.47917 10.8458 6.2875 11.0375C6.09583 11.2292 6 11.4667 6 11.75V16.75C6 17.0333 5.90417 17.2708 5.7125 17.4625C5.52083 17.6542 5.28333 17.75 5 17.75H2C1.45 17.75 0.979167 17.5542 0.5875 17.1625C0.195833 16.7708 0 16.3 0 15.75Z" fill="url(#paint0_linear_54699_6151)"/>
<defs>
<linearGradient id="paint0_linear_54699_6151" x1="8" y1="0.25" x2="8" y2="17.75" gradientUnits="userSpaceOnUse">
<stop stop-color="#49FCDC"/>
<stop offset="1" stop-color="#F8D8FF"/>
</linearGradient>
</defs>
</svg>
